<?xml version="1.0" encoding="UTF-8" standalone="no" ?>
<!DOCTYPE svg PUBLIC "-//W3C//DTD SVG 1.1//EN" "http://www.w3.org/Graphics/SVG/1.1/DTD/svg11.dtd">
<svg xmlns="http://www.w3.org/2000/svg" xmlns:xlink="http://www.w3.org/1999/xlink" version="1.1" width="1080" height="1080" viewBox="0 0 1080 1080" xml:space="preserve">
<desc>Created with Fabric.js 5.2.4</desc>
<defs>
</defs>
<rect x="0" y="0" width="100%" height="100%" fill="transparent"></rect>
<g transform="matrix(1 0 0 1 540 540)" id="a573447b-4356-46bf-87f5-6f01c22d8357"  >
<rect style="stroke: none; stroke-width: 1; stroke-dasharray: none; stroke-linecap: butt; stroke-dashoffset: 0; stroke-linejoin: miter; stroke-miterlimit: 4; fill: rgb(255,255,255); fill-rule: nonzero; opacity: 1; visibility: hidden;" vector-effect="non-scaling-stroke"  x="-540" y="-540" rx="0" ry="0" width="1080" height="1080" />
</g>
<g transform="matrix(1 0 0 1 540 540)" id="8fe7ac15-7010-4555-95b2-e3b4bd3c9d01"  >
</g>
<g transform="matrix(1.15 0 0 1.32 570.01 482.17)"  >
<g style="" vector-effect="non-scaling-stroke"   >
		<g transform="matrix(1 0 0 1 -189.6 -187.14)"  >
<path style="stroke: none; stroke-width: 1; stroke-dasharray: none; stroke-linecap: butt; stroke-dashoffset: 0; stroke-linejoin: miter; stroke-miterlimit: 4; fill: rgb(240,240,240); fill-rule: nonzero; opacity: 1;" vector-effect="non-scaling-stroke"  transform=" translate(-410.4, -262.86)" d="M 405.68918 243.60385 C 420.16724 237.47221 438.31625 238.14646 450.16132000000005 248.48569 C 433.3212790068584 251.44573666487042 418.0710093946806 260.2669340284911 407.10872000000006 273.38856 C 402.8993700000001 278.46434999999997 398.74606000000006 284.54814999999996 392.2732000000001 285.80704 C 388.24565000000007 286.59043999999994 384.0378500000001 285.24219 380.59960000000007 283.00338999999997 C 377.1612400000001 280.76439 374.3624000000001 277.69138999999996 371.60433000000006 274.65355 L 370.6440800000001 274.2971 C 379.90159 261.58846 391.21112 249.73549 405.68918 243.60385 Z" stroke-linecap="round" />
</g>
		<g transform="matrix(1 0 0 1 -189.29 -188.68)"  >
<path style="stroke: none; stroke-width: 1; stroke-dasharray: none; stroke-linecap: butt; stroke-dashoffset: 0; stroke-linejoin: miter; stroke-miterlimit: 4; fill: rgb(255,255,255); fill-rule: nonzero; opacity: 1;" vector-effect="non-scaling-stroke"  transform=" translate(-410.71, -261.32)" d="M 449.97986 248.76121 C 437.2364046797771 246.1207461099632 423.9849424093559 247.56273152567263 412.1076799999999 252.88235000000003 C 409.5304458912548 253.98214468262168 407.14267725884457 255.48130863034984 405.03227999999996 257.32465 C 403.0345045457477 259.18673171315487 401.5718151567791 261.54981919523533 400.79618999999997 264.16838 C 400.02394 266.59538000000003 399.51507 269.16738000000004 398.1663 271.36444 C 396.7361119207463 273.618349559102 394.41197370289336 275.1547398280641 391.77792 275.58753 C 388.54681999999997 276.20511 385.28652 275.62488 382.11791999999997 274.94667000000004 C 378.59979999999996 274.19367000000005 374.95750999999996 273.35573000000005 371.38153 274.23887 C 370.94825 274.34587000000005 370.80753 273.66731000000004 371.24018 273.56047 C 377.46177 272.02397 383.47949 275.44585 389.70498000000003 275.13706 C 392.60990000000004 274.99297 395.48898 273.97257 397.22877000000005 271.5265 C 398.75012000000004 269.3875 399.27714000000003 266.73569 400.03782000000007 264.2715 C 400.7570239988177 261.70593214799055 402.09349253623753 259.3554921899218 403.93048000000005 257.4255 C 405.94021305092684 255.48065997801902 408.26624811660326 253.89200017765637 410.80898 252.72755 C 416.4916871665628 250.0147043907277 422.5656013827142 248.21222798649336 428.80821999999995 247.38615000000001 C 435.9276548853076 246.40384861431858 443.16266380202666 246.6466604108584 450.20021999999994 248.10408 C 450.63577 248.19446000000002 450.41257 248.85099000000002 449.97988 248.7612 Z" stroke-linecap="round" />
</g>
		<g transform="matrix(1 0 0 1 -181.66 -204.44)"  >
<path style="stroke: none; stroke-width: 1; stroke-dasharray: none; stroke-linecap: butt; stroke-dashoffset: 0; stroke-linejoin: miter; stroke-miterlimit: 4; fill: rgb(255,255,255); fill-rule: nonzero; opacity: 1;" vector-effect="non-scaling-stroke"  transform=" translate(-418.34, -245.56)" d="M 415.83128 250.94434 C 414.546649445213 246.57835641468978 416.6141374471315 241.92456212743244 420.71509 239.95117000000002 C 421.11751999999996 239.75922000000003 421.43471 240.37556 421.03173999999996 240.56776000000002 C 417.2081334220491 242.3990069804004 415.28887829364913 246.74304453746552 416.50967999999995 250.80298000000002 C 416.63757999999996 251.23015 415.95844999999997 251.36906000000002 415.83127999999994 250.94434 Z" stroke-linecap="round" />
</g>
		<g transform="matrix(1 0 0 1 -192.58 -185.66)"  >
<path style="stroke: none; stroke-width: 1; stroke-dasharray: none; stroke-linecap: butt; stroke-dashoffset: 0; stroke-linejoin: miter; stroke-miterlimit: 4; fill: rgb(255,255,255); fill-rule: nonzero; opacity: 1;" vector-effect="non-scaling-stroke"  transform=" translate(-407.42, -264.34)" d="M 401.02568 262.88621 C 404.9608776048919 265.0780228135056 409.57761949469545 265.70608501377336 413.95532000000003 264.64516000000003 C 414.38896000000005 264.53969 414.5298 265.21822000000003 414.09667 265.32356000000004 C 409.539070841372 266.41907869007565 404.73597045988834 265.75571596217503 400.64593 263.46586 C 400.25624000000005 263.24734 400.6381 262.66886 401.02568 262.88621 Z" stroke-linecap="round" />
</g>
		<g transform="matrix(1 0 0 1 -163.22 -200.44)"  >
<path style="stroke: none; stroke-width: 1; stroke-dasharray: none; stroke-linecap: butt; stroke-dashoffset: 0; stroke-linejoin: miter; stroke-miterlimit: 4; fill: rgb(255,255,255); fill-rule: nonzero; opacity: 1;" vector-effect="non-scaling-stroke"  transform=" translate(-436.78, -249.56)" d="M 435.68125 247.28905 C 435.8239097671626 249.05238624142734 436.8436809556589 250.62580612504004 438.39500999999996 251.47615 C 438.78727999999995 251.68962 438.40500999999995 252.26789 438.01525999999996 252.05579999999998 C 436.306412545085 251.10874213891194 435.1780889884432 249.3762595821249 435.00284999999997 247.43039999999996 C 434.9702555075645 247.24433558106665 435.0877808769682 247.0649466918878 435.27137999999997 247.02051999999998 C 435.45851997540115 246.98251201418972 435.64136096831265 247.1023019276416 435.68125 247.28904999999997 Z" stroke-linecap="round" />
</g>
		<g transform="matrix(1 0 0 1 -190.77 -164.55)"  >
<path style="stroke: none; stroke-width: 1; stroke-dasharray: none; stroke-linecap: butt; stroke-dashoffset: 0; stroke-linejoin: miter; stroke-miterlimit: 4; fill: rgb(240,240,240); fill-rule: nonzero; opacity: 1;" vector-effect="non-scaling-stroke"  transform=" translate(-409.23, -285.45)" d="M 448.7444 301.70154 C 448.49566999999996 301.5752 448.24694 301.44887 447.993 301.32522 C 444.64021049251846 299.6441036921496 441.1563884391643 298.2381459906897 437.57591 297.12122 C 437.30046000000004 297.03047 437.01991000000004 296.94264 436.74245 296.85999 C 428.0875804909505 294.26098344804296 419.02540283512906 293.29141080737264 410.01658999999995 294.00056 C 406.43203002156275 294.28604246622996 402.8743837552507 294.8438220455067 399.37444999999997 295.66907000000003 C 394.54097 296.80907 389.39094 298.42964 384.60406 297.92124 C 384.1040435298663 297.8738122709418 383.6074456477416 297.7954521749844 383.11712 297.68661000000003 L 370.28372 275.49626 C 370.27986000000004 275.43119 370.27082 275.36879 370.26682 275.30348 L 369.71391 274.44091 C 369.89145 274.38575 370.07676 274.33234 370.2543 274.27716999999996 C 370.35715 274.24474 370.46286 274.21725999999995 370.56571 274.18483 C 370.63518000000005 274.16477 370.70483 274.14495 370.76637000000005 274.12287999999995 C 370.78947000000005 274.11611999999997 370.81271000000004 274.10959999999994 370.83078000000006 274.10574999999994 C 370.89232000000004 274.08368999999993 370.95178000000004 274.06974999999994 371.00831000000005 274.05057999999997 Q 372.56088000000005 273.59853 374.12520000000006 273.16673 C 374.13027000000005 273.1638 374.13027000000005 273.1638 374.13820000000004 273.16580999999996 C 382.0638068384061 270.89632294543065 390.23065134152074 269.5750211021178 398.46755 269.22959999999995 C 398.71348 269.22259999999994 398.96435 269.21246999999994 399.21615 269.21559999999994 C 402.9013493944596 269.13025564681885 406.58735958457527 269.3462479871388 410.23737000000006 269.86141999999995 C 412.23509249540734 270.1499441657763 414.2169285855727 270.5394125556068 416.17527000000007 271.0283299999999 C 421.23289776365806 272.30134773163496 426.0588124036738 274.36197611538597 430.47609000000006 277.1346699999999 C 439.28109000000006 282.6632899999999 446.21991 290.9463599999999 448.57217 300.9365299999999 C 448.63216 301.19211 448.68947 301.443 448.7444 301.70154 Z" stroke-linecap="round" />
</g>
		<g transform="matrix(1 0 0 1 -190.39 -161.94)"  >
<path style="stroke: none; stroke-width: 1; stroke-dasharray: none; stroke-linecap: butt; stroke-dashoffset: 0; stroke-linejoin: miter; stroke-miterlimit: 4; fill: rgb(255,255,255); fill-rule: nonzero; opacity: 1;" vector-effect="non-scaling-stroke"  transform=" translate(-409.61, -288.06)" d="M 448.43391 301.81453 C 439.8487209716717 292.03383395641305 428.40000621601126 285.20688347110746 415.71391 282.30336 C 412.9939811152907 281.6298123232354 410.1848820639654 281.38920972340907 407.3900300000001 281.59041 C 404.6738156027915 281.8743800213165 402.0831976846587 282.8805342707321 399.8873500000001 284.50433000000004 C 397.8095200000001 285.97722000000005 395.85469000000006 287.72445000000005 393.4550000000001 288.66661000000005 C 390.9560666236381 289.6051553825292 388.1753617196403 289.43258349046465 385.8116500000001 288.19226000000003 C 382.8599700000001 286.74002 380.6061400000001 284.31381000000005 378.4845300000001 281.86458000000005 C 376.1288900000001 279.14518000000004 373.72520000000014 276.28325000000007 370.33827000000014 274.83540000000005 C 369.92790000000014 274.65997000000004 370.22410000000013 274.03347 370.6338500000001 274.20863 C 376.5265300000001 276.72763000000003 379.2711300000001 283.08291 384.4277500000001 286.58453000000003 C 386.8339200000001 288.21845 389.7470700000001 289.13714000000004 392.6088800000001 288.23153 C 395.1114100000001 287.43963 397.1287900000001 285.63960000000003 399.2197500000001 284.13008 C 401.338640231857 282.51461818409183 403.8208655756208 281.442564935589 406.4495900000001 281.00757000000004 C 409.2251783998099 280.6647191019437 412.0388718893367 280.7966996985153 414.7701800000001 281.39786000000004 C 420.9408239619127 282.65319085830663 426.87571790612407 284.8709382972984 432.3574500000001 287.96986000000004 C 438.6333260138158 291.47193317495845 444.26387915965154 296.02177375018437 449.0055000000001 301.42253000000005 C 449.2988400000001 301.75692000000004 448.7253600000001 302.14675000000005 448.4339400000001 301.81453000000005 Z" stroke-linecap="round" />
</g>
		<g transform="matrix(1 0 0 1 -174.76 -169.76)"  >
<path style="stroke: none; stroke-width: 1; stroke-dasharray: none; stroke-linecap: butt; stroke-dashoffset: 0; stroke-linejoin: miter; stroke-miterlimit: 4; fill: rgb(255,255,255); fill-rule: nonzero; opacity: 1;" vector-effect="non-scaling-stroke"  transform=" translate(-425.24, -280.24)" d="M 419.85379 282.99784 C 421.45671238499585 278.7384201888762 425.90939151945344 276.2674118491654 430.37188000000003 277.16084 C 430.80876 277.24984 430.69094 277.93294000000003 430.25348 277.84384 C 426.0980026342803 277.00388713778017 421.95015830127375 279.31684389459514 420.48056 283.2935 C 420.32549 283.71157 419.69956 283.4136 419.85379 282.99792 Z" stroke-linecap="round" />
</g>
		<g transform="matrix(1 0 0 1 -194.77 -161.56)"  >
<path style="stroke: none; stroke-width: 1; stroke-dasharray: none; stroke-linecap: butt; stroke-dashoffset: 0; stroke-linejoin: miter; stroke-miterlimit: 4; fill: rgb(255,255,255); fill-rule: nonzero; opacity: 1;" vector-effect="non-scaling-stroke"  transform=" translate(-405.23, -288.44)" d="M 400.84251 283.61875 C 402.66491695654287 287.73806575845606 405.9729927593371 291.01915089572344 410.1071 292.80775 C 410.51684 292.98463 410.22076 293.61118 409.81152000000003 293.43452 C 405.51295093466257 291.5652440619431 402.0773303044967 288.14378912095754 400.19031 283.85298 C 400.01073 283.44388 400.6639 283.21192 400.84251 283.61879 Z" stroke-linecap="round" />
</g>
		<g transform="matrix(1 0 0 1 -162.84 -155.5)"  >
<path style="stroke: none; stroke-width: 1; stroke-dasharray: none; stroke-linecap: butt; stroke-dashoffset: 0; stroke-linejoin: miter; stroke-miterlimit: 4; fill: rgb(255,255,255); fill-rule: nonzero; opacity: 1;" vector-effect="non-scaling-stroke"  transform=" translate(-437.16, -294.5)" d="M 437.90361 292.03034 C 436.95587947811765 293.5241475398386 436.8228017812798 295.39439009126505 437.54947000000004 297.00734 C 437.73415000000006 297.41396 437.08075 297.6455 436.89728 297.24152 C 436.1030512274764 295.45650550881095 436.24521866906827 293.393886509554 437.27684000000005 291.73472 C 437.3628395854298 291.5665360463263 437.56467972748834 291.4940638898506 437.73802000000006 291.56913 C 437.91032710852744 291.65144794443137 437.98419706944435 291.85717661087284 437.90361000000007 292.03029999999995 Z" stroke-linecap="round" />
</g>
		<g transform="matrix(1 0 0 1 344.57 176.87)"  >
<polygon style="stroke: none; stroke-width: 1; stroke-dasharray: none; stroke-linecap: butt; stroke-dashoffset: 0; stroke-linejoin: miter; stroke-miterlimit: 4; fill: rgb(160,97,106); fill-rule: nonzero; opacity: 1;" vector-effect="non-scaling-stroke"  points="8.38,21.91 -2.98,21.91 -8.38,-21.91 8.38,-21.91 8.38,21.91 " />
</g>
		<g transform="matrix(1 0 0 1 337.53 202.44)"  >
<path style="stroke: none; stroke-width: 1; stroke-dasharray: none; stroke-linecap: butt; stroke-dashoffset: 0; stroke-linejoin: miter; stroke-miterlimit: 4; fill: rgb(47,46,65); fill-rule: nonzero; opacity: 1;" vector-effect="non-scaling-stroke"  transform=" translate(-937.53, -652.44)" d="M 955.84782 659.80028 L 919.21316 659.79893 L 919.21316 659.33556 C 919.2137122247995 651.4606706840781 925.5975006761951 645.0769852025724 933.47239 645.07656 L 933.4733 645.07656 L 955.8485 645.07746 Z" stroke-linecap="round" />
</g>
		<g transform="matrix(1 0 0 1 429.85 173.05)"  >
<polygon style="stroke: none; stroke-width: 1; stroke-dasharray: none; stroke-linecap: butt; stroke-dashoffset: 0; stroke-linejoin: miter; stroke-miterlimit: 4; fill: rgb(160,97,106); fill-rule: nonzero; opacity: 1;" vector-effect="non-scaling-stroke"  points="11.56,20.82 0.33,22.51 -11.56,-20.01 3.16,-22.51 11.56,20.82 " />
</g>
		<g transform="matrix(1 0 0 1 427.7 199.78)"  >
<path style="stroke: none; stroke-width: 1; stroke-dasharray: none; stroke-linecap: butt; stroke-dashoffset: 0; stroke-linejoin: miter; stroke-miterlimit: 4; fill: rgb(47,46,65); fill-rule: nonzero; opacity: 1;" vector-effect="non-scaling-stroke"  transform=" translate(-1027.7, -649.78)" d="M 1045.92744 654.32517 L 1009.70422 659.8002799999999 L 1009.63495 659.3421199999999 C 1008.4582840729921 651.5556304293563 1013.816055455731 644.2893652270803 1021.6024 643.1117399999999 L 1021.6033 643.1116099999999 L 1043.72722 639.76767 Z" stroke-linecap="round" />
</g>
		<g transform="matrix(1 0 0 1 -52.41 40.05)"  >
<path style="stroke: none; stroke-width: 1; stroke-dasharray: none; stroke-linecap: butt; stroke-dashoffset: 0; stroke-linejoin: miter; stroke-miterlimit: 4; fill: rgb(255,255,255); fill-rule: nonzero; opacity: 1;" vector-effect="non-scaling-stroke"  transform=" translate(-547.59, -490.05)" d="M 717.33993 659.80028 L 377.84871 659.80028 L 377.84871 320.30928000000006 L 717.33993 320.30928000000006 Z" stroke-linecap="round" />
</g>
		<g transform="matrix(1 0 0 1 -52.41 40.05)"  >
<path style="stroke: none; stroke-width: 1; stroke-dasharray: none; stroke-linecap: butt; stroke-dashoffset: 0; stroke-linejoin: miter; stroke-miterlimit: 4; fill: rgb(240,240,240); fill-rule: nonzero; opacity: 1;" vector-effect="non-scaling-stroke"  transform=" translate(-547.59, -490.05)" d="M 717.33993 659.80028 L 377.84871 659.80028 L 377.84871 320.30928000000006 L 717.33993 320.30928000000006 Z M 382.86465999999996 654.7842800000001 L 712.324 654.7842800000001 L 712.324 325.32522 L 382.86466 325.32522 Z" stroke-linecap="round" />
</g>
		<g transform="matrix(1 0 0 1 -43.29 20.1)"  >
<rect style="stroke: none; stroke-width: 1; stroke-dasharray: none; stroke-linecap: butt; stroke-dashoffset: 0; stroke-linejoin: miter; stroke-miterlimit: 4; fill: rgb(36,100,236); fill-rule: nonzero; opacity: 1;" vector-effect="non-scaling-stroke"  x="-108.863185" y="-3.842925" rx="0" ry="0" width="217.72637" height="7.68585" />
</g>
		<g transform="matrix(1 0 0 1 -43.29 40.08)"  >
<rect style="stroke: none; stroke-width: 1; stroke-dasharray: none; stroke-linecap: butt; stroke-dashoffset: 0; stroke-linejoin: miter; stroke-miterlimit: 4; fill: rgb(36,100,236); fill-rule: nonzero; opacity: 1;" vector-effect="non-scaling-stroke"  x="-108.863185" y="-3.842925" rx="0" ry="0" width="217.72637" height="7.68585" />
</g>
		<g transform="matrix(1 0 0 1 -43.29 60.06)"  >
<rect style="stroke: none; stroke-width: 1; stroke-dasharray: none; stroke-linecap: butt; stroke-dashoffset: 0; stroke-linejoin: miter; stroke-miterlimit: 4; fill: rgb(36,100,236); fill-rule: nonzero; opacity: 1;" vector-effect="non-scaling-stroke"  x="-108.863185" y="-3.842925" rx="0" ry="0" width="217.72637" height="7.68585" />
</g>
		<g transform="matrix(1 0 0 1 -165.37 21.22)"  >
<circle style="stroke: none; stroke-width: 1; stroke-dasharray: none; stroke-linecap: butt; stroke-dashoffset: 0; stroke-linejoin: miter; stroke-miterlimit: 4; fill: rgb(36,100,236); fill-rule: nonzero; opacity: 1;" vector-effect="non-scaling-stroke"  cx="0" cy="0" r="5.01595" />
</g>
		<g transform="matrix(1 0 0 1 -43.29 -66.01)"  >
<rect style="stroke: none; stroke-width: 1; stroke-dasharray: none; stroke-linecap: butt; stroke-dashoffset: 0; stroke-linejoin: miter; stroke-miterlimit: 4; fill: rgb(240,240,240); fill-rule: nonzero; opacity: 1;" vector-effect="non-scaling-stroke"  x="-108.863185" y="-3.842925" rx="0" ry="0" width="217.72637" height="7.68585" />
</g>
		<g transform="matrix(1 0 0 1 -43.29 -46.03)"  >
<rect style="stroke: none; stroke-width: 1; stroke-dasharray: none; stroke-linecap: butt; stroke-dashoffset: 0; stroke-linejoin: miter; stroke-miterlimit: 4; fill: rgb(240,240,240); fill-rule: nonzero; opacity: 1;" vector-effect="non-scaling-stroke"  x="-108.863185" y="-3.842925" rx="0" ry="0" width="217.72637" height="7.68585" />
</g>
		<g transform="matrix(1 0 0 1 -43.29 -26.05)"  >
<rect style="stroke: none; stroke-width: 1; stroke-dasharray: none; stroke-linecap: butt; stroke-dashoffset: 0; stroke-linejoin: miter; stroke-miterlimit: 4; fill: rgb(240,240,240); fill-rule: nonzero; opacity: 1;" vector-effect="non-scaling-stroke"  x="-108.863185" y="-3.842925" rx="0" ry="0" width="217.72637" height="7.68585" />
</g>
		<g transform="matrix(1 0 0 1 -165.37 -65.72)"  >
<circle style="stroke: none; stroke-width: 1; stroke-dasharray: none; stroke-linecap: butt; stroke-dashoffset: 0; stroke-linejoin: miter; stroke-miterlimit: 4; fill: rgb(240,240,240); fill-rule: nonzero; opacity: 1;" vector-effect="non-scaling-stroke"  cx="0" cy="0" r="5.01595" />
</g>
		<g transform="matrix(1 0 0 1 -43.29 107.04)"  >
<rect style="stroke: none; stroke-width: 1; stroke-dasharray: none; stroke-linecap: butt; stroke-dashoffset: 0; stroke-linejoin: miter; stroke-miterlimit: 4; fill: rgb(240,240,240); fill-rule: nonzero; opacity: 1;" vector-effect="non-scaling-stroke"  x="-108.863185" y="-3.842925" rx="0" ry="0" width="217.72637" height="7.68585" />
</g>
		<g transform="matrix(1 0 0 1 -43.29 127.02)"  >
<rect style="stroke: none; stroke-width: 1; stroke-dasharray: none; stroke-linecap: butt; stroke-dashoffset: 0; stroke-linejoin: miter; stroke-miterlimit: 4; fill: rgb(240,240,240); fill-rule: nonzero; opacity: 1;" vector-effect="non-scaling-stroke"  x="-108.863185" y="-3.842925" rx="0" ry="0" width="217.72637" height="7.68585" />
</g>
		<g transform="matrix(1 0 0 1 -43.29 147)"  >
<rect style="stroke: none; stroke-width: 1; stroke-dasharray: none; stroke-linecap: butt; stroke-dashoffset: 0; stroke-linejoin: miter; stroke-miterlimit: 4; fill: rgb(240,240,240); fill-rule: nonzero; opacity: 1;" vector-effect="non-scaling-stroke"  x="-108.863185" y="-3.842925" rx="0" ry="0" width="217.72637" height="7.68585" />
</g>
		<g transform="matrix(1 0 0 1 -165.37 107.33)"  >
<circle style="stroke: none; stroke-width: 1; stroke-dasharray: none; stroke-linecap: butt; stroke-dashoffset: 0; stroke-linejoin: miter; stroke-miterlimit: 4; fill: rgb(229,229,229); fill-rule: nonzero; opacity: 1;" vector-effect="non-scaling-stroke"  cx="0" cy="0" r="5.01595" />
</g>
		<g transform="matrix(1 0 0 1 200.81 -8.76)" id="a663a212-5a7a-4ecb-8a2f-6fa6ae0edb66-1292"  >
<path style="stroke: none; stroke-width: 1; stroke-dasharray: none; stroke-linecap: butt; stroke-dashoffset: 0; stroke-linejoin: miter; stroke-miterlimit: 4; fill: rgb(255,255,255); fill-rule: nonzero; opacity: 1;" vector-effect="non-scaling-stroke"  transform=" translate(-800.81, -441.24)" d="M 899.57762 525.691 L 702.04435 525.691 C 699.0850800000001 525.68347 696.6864400000001 520.7777500000001 696.68267 514.7206600000001 L 696.68267 367.76644 C 696.68267 361.71058 699.0850800000001 356.80617 702.04435 356.79609999999997 L 899.57762 356.79609999999997 C 902.53689 356.80364 904.9355400000001 361.70935 904.9393 367.76644 L 904.9393 514.71939 C 904.93554 520.77525 902.533 525.68342 899.57762 525.691 Z" stroke-linecap="round" />
</g>
		<g transform="matrix(1 0 0 1 200.81 -8.76)" id="a98f1666-d830-4ea5-aaaf-8bede3f0142e-1293"  >
<path style="stroke: none; stroke-width: 1; stroke-dasharray: none; stroke-linecap: butt; stroke-dashoffset: 0; stroke-linejoin: miter; stroke-miterlimit: 4; fill: rgb(230,230,230); fill-rule: nonzero; opacity: 1;" vector-effect="non-scaling-stroke"  transform=" translate(-800.81, -441.24)" d="M 899.57762 525.691 L 702.04435 525.691 C 699.0850800000001 525.68347 696.6864400000001 520.7777500000001 696.68267 514.7206600000001 L 696.68267 367.76644 C 696.68267 361.71058 699.0850800000001 356.80617 702.04435 356.79609999999997 L 899.57762 356.79609999999997 C 902.53689 356.80364 904.9355400000001 361.70935 904.9393 367.76644 L 904.9393 514.71939 C 904.93554 520.77525 902.533 525.68342 899.57762 525.691 Z M 702.04435 361.18394 C 700.26807 361.18394 698.82935 364.13314 698.8268 367.76636 L 698.8268 514.71936 C 698.8268 518.3525800000001 700.26799 521.2980100000001 702.04435 521.30177 L 899.57762 521.30177 C 901.35391 521.30177 902.79262 518.35377 902.79517 514.71936 L 902.79517 367.76644 C 902.79517 364.13320999999996 901.35398 361.18779 899.57762 361.18402 Z" stroke-linecap="round" />
</g>
		<g transform="matrix(1 0 0 1 200.97 28.62)"  >
<rect style="stroke: none; stroke-width: 1; stroke-dasharray: none; stroke-linecap: butt; stroke-dashoffset: 0; stroke-linejoin: miter; stroke-miterlimit: 4; fill: rgb(36,100,236); fill-rule: nonzero; opacity: 1;" vector-effect="non-scaling-stroke"  x="-26.5856" y="-1.998235" rx="0" ry="0" width="53.1712" height="3.99647" />
</g>
		<g transform="matrix(1 0 0 1 200.73 39)"  >
<rect style="stroke: none; stroke-width: 1; stroke-dasharray: none; stroke-linecap: butt; stroke-dashoffset: 0; stroke-linejoin: miter; stroke-miterlimit: 4; fill: rgb(36,100,236); fill-rule: nonzero; opacity: 1;" vector-effect="non-scaling-stroke"  x="-33.45808" y="-1.998235" rx="0" ry="0" width="66.91616" height="3.99647" />
</g>
		<g transform="matrix(1 0 0 1 200.81 -23.8)"  >
<path style="stroke: none; stroke-width: 1; stroke-dasharray: none; stroke-linecap: butt; stroke-dashoffset: 0; stroke-linejoin: miter; stroke-miterlimit: 4; fill: rgb(202,202,202); fill-rule: nonzero; opacity: 1;" vector-effect="non-scaling-stroke"  transform=" translate(-800.81, -426.2)" d="M 835.52879 426.20517 C 835.5242883082852 438.4238210592306 829.0994287114028 449.74126068955974 818.6100356286012 456.0076860443325 C 808.1206425457996 462.27411139910527 795.1099874208713 462.5675630066593 784.3487299999999 456.78044 L 784.3419899999999 456.77369 C 769.3951270760007 448.72142995829273 762.4637566399651 431.04085628834133 767.9558515873156 414.97584784958275 C 773.4479465346661 398.9108394108242 789.7524745411844 389.1738507641846 806.5006466078371 391.95707469945984 C 823.2488186744899 394.74029863473504 835.5277833612332 409.2273137738808 835.5287899999998 426.20517 Z" stroke-linecap="round" />
</g>
		<g transform="matrix(1 0 0 1 200.99 -34.92)"  >
<circle style="stroke: none; stroke-width: 1; stroke-dasharray: none; stroke-linecap: butt; stroke-dashoffset: 0; stroke-linejoin: miter; stroke-miterlimit: 4; fill: rgb(255,255,255); fill-rule: nonzero; opacity: 1;" vector-effect="non-scaling-stroke"  cx="0" cy="0" r="9.43785" />
</g>
		<g transform="matrix(1 0 0 1 200.81 -11.61)"  >
<path style="stroke: none; stroke-width: 1; stroke-dasharray: none; stroke-linecap: butt; stroke-dashoffset: 0; stroke-linejoin: miter; stroke-miterlimit: 4; fill: rgb(255,255,255); fill-rule: nonzero; opacity: 1;" vector-effect="non-scaling-stroke"  transform=" translate(-800.81, -438.39)" d="M 817.10306 444.02072 C 806.5521844159364 447.7241801094087 795.0475330156447 447.67962339625245 784.52566 443.89455 L 784.51891 443.88988 L 791.55006 430.01064 L 810.4257600000001 430.01064 Z" stroke-linecap="round" />
</g>
		<g transform="matrix(1 0 0 1 135.75 95.74)"  >
<polygon style="stroke: none; stroke-width: 1; stroke-dasharray: none; stroke-linecap: butt; stroke-dashoffset: 0; stroke-linejoin: miter; stroke-miterlimit: 4; fill: rgb(63,61,86); fill-rule: nonzero; opacity: 1;" vector-effect="non-scaling-stroke"  points="-74.11,32.49 74.11,32.49 74.11,-32.49 71.83,-32.49 71.83,30.21 -74.11,30.21 -74.11,32.49 " />
</g>
		<g transform="matrix(1 0 0 1 208.72 73.78)"  >
<circle style="stroke: none; stroke-width: 1; stroke-dasharray: none; stroke-linecap: butt; stroke-dashoffset: 0; stroke-linejoin: miter; stroke-miterlimit: 4; fill: rgb(63,61,86); fill-rule: nonzero; opacity: 1;" vector-effect="non-scaling-stroke"  cx="0" cy="0" r="12.54135" />
</g>
		<g transform="matrix(1 0 0 1 -311.19 -98.76)" id="afd00def-263c-4571-9f5d-7c41b30310dc-1294"  >
<path style="stroke: none; stroke-width: 1; stroke-dasharray: none; stroke-linecap: butt; stroke-dashoffset: 0; stroke-linejoin: miter; stroke-miterlimit: 4; fill: rgb(255,255,255); fill-rule: nonzero; opacity: 1;" vector-effect="non-scaling-stroke"  transform=" translate(-288.81, -351.24)" d="M 387.57762 435.691 L 190.04435 435.691 C 187.08508 435.68347 184.68644 430.77774999999997 184.68267 424.72065999999995 L 184.68267 277.76644 C 184.68267 271.71058 187.08508 266.80617 190.04435 266.79609999999997 L 387.57762 266.79609999999997 C 390.53689 266.80364 392.93554 271.70935 392.9393 277.76644 L 392.9393 424.71939 C 392.93554 430.77525 390.533 435.68342 387.57762 435.691 Z" stroke-linecap="round" />
</g>
		<g transform="matrix(1 0 0 1 -311.19 -98.76)" id="e92130d0-80d8-429c-a3ca-73c1ffe05a6e-1295"  >
<path style="stroke: none; stroke-width: 1; stroke-dasharray: none; stroke-linecap: butt; stroke-dashoffset: 0; stroke-linejoin: miter; stroke-miterlimit: 4; fill: rgb(230,230,230); fill-rule: nonzero; opacity: 1;" vector-effect="non-scaling-stroke"  transform=" translate(-288.81, -351.24)" d="M 387.57762 435.691 L 190.04435 435.691 C 187.08508 435.68347 184.68644 430.77774999999997 184.68267 424.72065999999995 L 184.68267 277.76644 C 184.68267 271.71058 187.08508 266.80617 190.04435 266.79609999999997 L 387.57762 266.79609999999997 C 390.53689 266.80364 392.93554 271.70935 392.9393 277.76644 L 392.9393 424.71939 C 392.93554 430.77525 390.533 435.68342 387.57762 435.691 Z M 190.04435 271.18394 C 188.26807 271.18394 186.82935 274.13314 186.82680000000002 277.76636 L 186.82680000000002 424.71936000000005 C 186.82680000000002 428.35258000000005 188.26799000000003 431.29801000000003 190.04435 431.30177000000003 L 387.57762 431.30177000000003 C 389.35391000000004 431.30177000000003 390.79262 428.35377000000005 390.79517000000004 424.71936000000005 L 390.79517000000004 277.76644 C 390.79517000000004 274.13320999999996 389.35398000000004 271.18779 387.57762 271.18402 Z" stroke-linecap="round" />
</g>
		<g transform="matrix(1 0 0 1 -284.19 -128.12)"  >
<path style="stroke: none; stroke-width: 1; stroke-dasharray: none; stroke-linecap: butt; stroke-dashoffset: 0; stroke-linejoin: miter; stroke-miterlimit: 4; fill: rgb(63,61,86); fill-rule: nonzero; opacity: 1;" vector-effect="non-scaling-stroke"  transform=" translate(-315.81, -321.88)" d="M 332.66362 312.70547 C 323.8736453094403 303.37299745436235 311.7731508236708 297.86153190843635 298.9628899999999 297.35564999999997 L 298.96288999999996 346.40621999999996 Z" stroke-linecap="round" />
</g>
		<g transform="matrix(1 0 0 1 -277.49 -114.34)"  >
<path style="stroke: none; stroke-width: 1; stroke-dasharray: none; stroke-linecap: butt; stroke-dashoffset: 0; stroke-linejoin: miter; stroke-miterlimit: 4; fill: rgb(228,228,228); fill-rule: nonzero; opacity: 1;" vector-effect="non-scaling-stroke"  transform=" translate(-322.51, -335.66)" d="M 332.66362 318.8129 L 298.96288999999996 352.51364 L 346.06055 352.51364 C 346.0772341205503 339.9786020284163 341.281778709461 327.91536097313605 332.66362 318.8129 Z" stroke-linecap="round" />
</g>
		<g transform="matrix(1 0 0 1 -277.46 -69.44)"  >
<path style="stroke: none; stroke-width: 1; stroke-dasharray: none; stroke-linecap: butt; stroke-dashoffset: 0; stroke-linejoin: miter; stroke-miterlimit: 4; fill: rgb(240,240,240); fill-rule: nonzero; opacity: 1;" vector-effect="non-scaling-stroke"  transform=" translate(-322.54, -380.56)" d="M 346.11086 356.03832 C 346.11278303310684 359.0955427070603 345.8298941192999 362.14629710070113 345.26586 365.15104 C 345.22211 365.38899000000004 345.17598999999996 365.62451000000004 345.12737999999996 365.86004 C 344.0639645792068 371.10145039493955 342.1443388162737 376.1318708289704 339.44561 380.74924000000004 C 339.30239 380.99690000000004 339.15418999999997 381.24457000000007 339.00611 381.48738000000003 L 339.00611 381.48981000000003 C 336.34644715596625 385.8661398140965 333.02043246552336 389.80083066890904 329.148 393.152 C 328.95617000000004 393.31953 328.76434 393.48465 328.57014000000004 393.64733 C 320.24827418171 400.6486930118235 309.82917383071305 404.67483761982004 298.96173000000005 405.0886 L 298.96173000000005 356.03832 Z" stroke-linecap="round" />
</g>
		<g transform="matrix(1 0 0 1 -321.69 -69.42)"  >
<path style="stroke: none; stroke-width: 1; stroke-dasharray: none; stroke-linecap: butt; stroke-dashoffset: 0; stroke-linejoin: miter; stroke-miterlimit: 4; fill: rgb(202,202,202); fill-rule: nonzero; opacity: 1;" vector-effect="non-scaling-stroke"  transform=" translate(-278.31, -380.58)" d="M 294.19823 405.13148 C 294.85017000000005 405.13148 295.49823000000004 405.11485 296.14408000000003 405.08966000000004 L 296.14408000000003 356.03716000000003 L 260.47108000000003 391.71007000000003 C 269.57638370703506 400.34338155603456 281.65070662413217 405.1482476162488 294.19822999999997 405.13148 Z" stroke-linecap="round" />
</g>
		<g transform="matrix(1 0 0 1 -329.28 -122.03)"  >
<path style="stroke: none; stroke-width: 1; stroke-dasharray: none; stroke-linecap: butt; stroke-dashoffset: 0; stroke-linejoin: miter; stroke-miterlimit: 4; fill: rgb(36,100,236); fill-rule: nonzero; opacity: 1;" vector-effect="non-scaling-stroke"  transform=" translate(-270.72, -327.97)" d="M 294.26487 303.41932 C 281.244244339373 303.4193120434966 268.7569073233745 308.5917319235293 259.5499346234519 317.79870462345195 C 250.34296192352926 327.0056773233746 245.17054204349648 339.493014339373 245.17054999999996 352.51364 L 296.26154999999994 352.51364 L 296.26154999999994 303.46308 C 295.59892 303.43657 294.934 303.41932 294.26487 303.41932 Z" stroke-linecap="round" />
</g>
		<g transform="matrix(1 0 0 1 -342.97 -76.13)"  >
<path style="stroke: none; stroke-width: 1; stroke-dasharray: none; stroke-linecap: butt; stroke-dashoffset: 0; stroke-linejoin: miter; stroke-miterlimit: 4; fill: rgb(36,100,236); fill-rule: nonzero; opacity: 1;" vector-effect="non-scaling-stroke"  transform=" translate(-257.03, -373.87)" d="M 282.55249 356.03832 L 272.23062999999996 366.36023 L 271.89309 366.69774 L 271.88574 366.70502 L 262.88474 375.70360999999997 L 262.54246 376.04598 L 252.81779 385.77058 L 252.47539 386.11293 L 252.47539 386.11537 L 246.87863000000002 391.70975 C 237.05629949751102 382.4471464865629 231.49545187286188 369.53919981563587 231.51109000000002 356.03832 Z" stroke-linecap="round" />
</g>
		<g transform="matrix(1 0 0 1 -225.69 7.74)"  >
<polygon style="stroke: none; stroke-width: 1; stroke-dasharray: none; stroke-linecap: butt; stroke-dashoffset: 0; stroke-linejoin: miter; stroke-miterlimit: 4; fill: rgb(63,61,86); fill-rule: nonzero; opacity: 1;" vector-effect="non-scaling-stroke"  points="74.11,32.49 -74.11,32.49 -74.11,-32.49 -71.83,-32.49 -71.83,30.21 74.11,30.21 74.11,32.49 " />
</g>
		<g transform="matrix(1 0 0 1 -298.66 -14.22)"  >
<circle style="stroke: none; stroke-width: 1; stroke-dasharray: none; stroke-linecap: butt; stroke-dashoffset: 0; stroke-linejoin: miter; stroke-miterlimit: 4; fill: rgb(63,61,86); fill-rule: nonzero; opacity: 1;" vector-effect="non-scaling-stroke"  cx="0" cy="0" r="12.54135" />
</g>
		<g transform="matrix(1 0 0 1 399.98 18.91)"  >
<path style="stroke: none; stroke-width: 1; stroke-dasharray: none; stroke-linecap: butt; stroke-dashoffset: 0; stroke-linejoin: miter; stroke-miterlimit: 4; fill: rgb(160,97,106); fill-rule: nonzero; opacity: 1;" vector-effect="non-scaling-stroke"  transform=" translate(-999.98, -468.91)" d="M 1006.385 431.60761 L 993.76992 434.91288000000003 L 994.6091399999999 455.36546000000004 L 994.71314 492.60332000000005 C 992.1687296742016 494.3631146769455 990.9739235130927 497.5103327340291 991.7094395955575 500.51531481442 C 992.4449556780223 503.5202968948109 994.9582688657365 505.75989509134496 998.0278200024858 506.1455854203856 C 1001.0973711392352 506.5312757494262 1004.0866225300762 504.98307699480455 1005.5426922084645 502.2534685425329 C 1006.9987618868528 499.5238600902612 1006.6197023707405 496.17888518083345 1004.58975 493.84432000000004 L 1008.46626 456.47005 Z" stroke-linecap="round" />
</g>
		<g transform="matrix(1 0 0 1 399.32 -28.96)"  >
<path style="stroke: none; stroke-width: 1; stroke-dasharray: none; stroke-linecap: butt; stroke-dashoffset: 0; stroke-linejoin: miter; stroke-miterlimit: 4; fill: rgb(228,228,228); fill-rule: nonzero; opacity: 1;" vector-effect="non-scaling-stroke"  transform=" translate(-999.32, -421.04)" d="M 1009.91494 443.90572 L 991.47588 437.69638999999995 L 991.4326699999999 437.4185499999999 C 991.4052899999999 437.24387999999993 988.7004199999999 419.7797499999999 988.73367 407.7982199999999 C 988.6589396851632 405.09684306854183 989.7783413216739 402.4997856157207 991.7935299999999 400.6992199999999 C 994.6242466807342 398.1163174189 998.7172034965184 397.4580477449883 1002.2150399999999 399.0231299999999 C 1005.9494785831056 400.56301061093876 1008.4387555251229 404.14404947930774 1008.58093 408.1810099999999 Z" stroke-linecap="round" />
</g>
		<g transform="matrix(1 0 0 1 389.51 88.63)"  >
<path style="stroke: none; stroke-width: 1; stroke-dasharray: none; stroke-linecap: butt; stroke-dashoffset: 0; stroke-linejoin: miter; stroke-miterlimit: 4; fill: rgb(47,46,65); fill-rule: nonzero; opacity: 1;" vector-effect="non-scaling-stroke"  transform=" translate(-989.51, -538.63)" d="M 975.611 442.19226 L 947.408 434.89184 L 934.37113 478.79842 L 933.9077599999999 642.36772 L 955.47466 642.23272 L 964.49013 509.84415 L 1021.9479 632.1736 L 1045.11635 629.39338 L 994.60915 498.25993 C 994.60915 498.25993 997.38936 475.09147 988.58535 463.50724 L 990.4388299999999 451.45964000000004 Z" stroke-linecap="round" />
</g>
		<g transform="matrix(1 0 0 1 377.36 -32.41)"  >
<path style="stroke: none; stroke-width: 1; stroke-dasharray: none; stroke-linecap: butt; stroke-dashoffset: 0; stroke-linejoin: miter; stroke-miterlimit: 4; fill: rgb(228,228,228); fill-rule: nonzero; opacity: 1;" vector-effect="non-scaling-stroke"  transform=" translate(-977.36, -417.59)" d="M 991.27384 454.70349 L 989.1393499999999 454.67 L 945.7980499999999 437.34615 L 966.5329099999999 391.16490000000005 L 976.3772399999999 392.95412000000005 L 974.58508 385.78548000000006 L 996.33696 380.46848000000006 L 1000.12152 395.6067100000001 L 1005.70615 400.68295000000006 C 1008.5795406933926 403.2974724016155 1009.6411852400371 407.3603249233712 1008.41415 411.04631000000006 L 995.5497799999999 449.63989000000004 C 995.7636263304088 450.89914396697145 995.4115647320906 452.1886371544133 994.5874766081366 453.16451090153464 C 993.7633884841828 454.1403846486559 992.5510625856497 454.70341747648683 991.27378 454.70347000000004 Z" stroke-linecap="round" />
</g>
		<g transform="matrix(1 0 0 1 329.07 -7.61)"  >
<path style="stroke: none; stroke-width: 1; stroke-dasharray: none; stroke-linecap: butt; stroke-dashoffset: 0; stroke-linejoin: miter; stroke-miterlimit: 4; fill: rgb(160,97,106); fill-rule: nonzero; opacity: 1;" vector-effect="non-scaling-stroke"  transform=" translate(-929.07, -442.39)" d="M 958.67921 420.1228 L 947.27686 413.79418 L 933.74963 429.15733 L 908.0914700000001 456.14487 C 905.0362405193496 455.6585146822397 901.9977163270859 457.1076512192534 900.4527298050734 459.7879469718429 C 898.907743283061 462.46824272443246 899.1766813077771 465.82387952074123 901.1288302964155 468.2238968124932 C 903.0809792850537 470.6239141042451 906.3115182841768 471.57061561212595 909.2502887882421 470.60387024803765 C 912.1890592923072 469.63712488394935 914.2266427147657 466.9574085246303 914.3727000000001 463.86716 L 943.0022600000001 439.53176 Z" stroke-linecap="round" />
</g>
		<g transform="matrix(1 0 0 1 361.38 -40.43)"  >
<path style="stroke: none; stroke-width: 1; stroke-dasharray: none; stroke-linecap: butt; stroke-dashoffset: 0; stroke-linejoin: miter; stroke-miterlimit: 4; fill: rgb(228,228,228); fill-rule: nonzero; opacity: 1;" vector-effect="non-scaling-stroke"  transform=" translate(-961.38, -409.57)" d="M 952.73216 431.45118 L 943.69533 414.22093 L 943.85588 413.99018 C 943.95688 413.84529000000003 954.0705899999999 399.35242 962.37425 390.7153 C 964.1870402193389 388.7111796282253 966.7907943294067 387.60762711742547 969.4916099999999 387.69874 C 973.3221261448244 387.7893166901847 976.7347523108167 390.1414781934838 978.18256 393.68899999999996 C 979.8177138847641 397.3824108278185 979.1423903382648 401.69075998329106 976.45556 404.70671 Z" stroke-linecap="round" />
</g>
		<g transform="matrix(1 0 0 1 380.24 -89.63)"  >
<circle style="stroke: none; stroke-width: 1; stroke-dasharray: none; stroke-linecap: butt; stroke-dashoffset: 0; stroke-linejoin: miter; stroke-miterlimit: 4; fill: rgb(160,97,106); fill-rule: nonzero; opacity: 1;" vector-effect="non-scaling-stroke"  cx="0" cy="0" r="17.28264" />
</g>
		<g transform="matrix(1 0 0 1 382.42 -93.2)"  >
<path style="stroke: none; stroke-width: 1; stroke-dasharray: none; stroke-linecap: butt; stroke-dashoffset: 0; stroke-linejoin: miter; stroke-miterlimit: 4; fill: rgb(47,46,65); fill-rule: nonzero; opacity: 1;" vector-effect="non-scaling-stroke"  transform=" translate(-982.42, -356.8)" d="M 959.44629 350.23513 C 962.35253 345.03213000000005 963.46457 342.85869 967.21182 339.69481 C 970.52552 336.89668 974.60149 336.07495 977.88909 338.72624 C 985.8754689359779 335.27560954436615 995.1798049534068 337.4757466859361 1000.7748789808032 344.1378969152789 C 1006.3699530081997 350.80004714462166 1006.9291636200334 360.3446034810133 1002.1503641346368 367.6145535859831 C 997.3715646492402 374.884503690953 988.3878164307005 378.1561302149963 980.0531219884979 375.66174299455577 C 971.7184275462954 373.1673557741151 966.0089568960985 365.49837819809625 966.00959 356.79843 C 966.0125493803752 356.0544359218636 966.0573333749269 355.31119655500106 966.14373 354.57223 C 963.286 354.17089 962.304 350.63647 959.44629 350.23513 Z" stroke-linecap="round" />
</g>
		<g transform="matrix(1 0 0 1 -404.88 4.55)"  >
<path style="stroke: none; stroke-width: 1; stroke-dasharray: none; stroke-linecap: butt; stroke-dashoffset: 0; stroke-linejoin: miter; stroke-miterlimit: 4; fill: rgb(255,184,184); fill-rule: nonzero; opacity: 1;" vector-effect="non-scaling-stroke"  transform=" translate(-195.12, -454.55)" d="M 195.09189 501.3224 C 196.7387521092936 500.3325742331434 197.8625927902118 498.664124615295 198.1610043947544 496.7660043951734 C 198.459415999297 494.86788417505176 197.90174434426405 492.9350768053023 196.63805 491.48767000000004 L 205.0752 406.82194000000004 L 190.98687999999999 407.75680000000006 L 187.08399999999997 491.12680000000006 C 184.74170288336157 493.4621408403729 184.51629951300814 497.1803064576606 186.55933332830637 499.7814956958503 C 188.60236714360457 502.38268493404 192.2680603070813 503.0446938978667 195.09188999999998 501.3224400000001 Z" stroke-linecap="round" />
</g>
		<g transform="matrix(1 0 0 1 -402.97 -31.62)"  >
<path style="stroke: none; stroke-width: 1; stroke-dasharray: none; stroke-linecap: butt; stroke-dashoffset: 0; stroke-linejoin: miter; stroke-miterlimit: 4; fill: rgb(47,46,65); fill-rule: nonzero; opacity: 1;" vector-effect="non-scaling-stroke"  transform=" translate(-197.03, -418.38)" d="M 185.27941 403.686 L 188.97302000000002 431.75842 L 188.46027 448.96355 L 203.95516 450.38225 L 207.06065 436.07254 L 208.77155000000002 398.18883 C 209.03928040567038 392.2606672870918 204.67789917154587 387.13446637296465 198.78340000000003 386.44914 L 198.78340000000003 386.44914 C 192.65047400542417 385.73609536175246 187.07977683528011 390.0753580177167 186.27013000000002 396.19628 Z" stroke-linecap="round" />
</g>
		<g transform="matrix(1 0 0 1 -348.45 182.56)"  >
<polygon style="stroke: none; stroke-width: 1; stroke-dasharray: none; stroke-linecap: butt; stroke-dashoffset: 0; stroke-linejoin: miter; stroke-miterlimit: 4; fill: rgb(255,183,183); fill-rule: nonzero; opacity: 1;" vector-effect="non-scaling-stroke"  points="-6.93,18.13 2.47,18.13 6.94,-18.13 -6.94,-18.13 -6.93,18.13 " />
</g>
		<g transform="matrix(1 0 0 1 -342.63 203.71)"  >
<path style="stroke: none; stroke-width: 1; stroke-dasharray: none; stroke-linecap: butt; stroke-dashoffset: 0; stroke-linejoin: miter; stroke-miterlimit: 4; fill: rgb(47,46,65); fill-rule: nonzero; opacity: 1;" vector-effect="non-scaling-stroke"  transform=" translate(-257.37, -653.71)" d="M 242.2212 647.62042 L 260.7317 647.6196699999999 L 260.73245 647.6196699999999 C 267.2471674237212 647.6200344586493 272.52832613271346 652.9011125825984 272.52878999999996 659.4158299999999 L 272.52878999999996 659.7991599999999 L 242.22178999999997 659.8002799999999 Z" stroke-linecap="round" />
</g>
		<g transform="matrix(1 0 0 1 -426.06 182.56)"  >
<polygon style="stroke: none; stroke-width: 1; stroke-dasharray: none; stroke-linecap: butt; stroke-dashoffset: 0; stroke-linejoin: miter; stroke-miterlimit: 4; fill: rgb(255,183,183); fill-rule: nonzero; opacity: 1;" vector-effect="non-scaling-stroke"  points="-6.93,18.13 2.46,18.13 6.94,-18.13 -6.94,-18.13 -6.93,18.13 " />
</g>
		<g transform="matrix(1 0 0 1 -420.24 203.71)"  >
<path style="stroke: none; stroke-width: 1; stroke-dasharray: none; stroke-linecap: butt; stroke-dashoffset: 0; stroke-linejoin: miter; stroke-miterlimit: 4; fill: rgb(47,46,65); fill-rule: nonzero; opacity: 1;" vector-effect="non-scaling-stroke"  transform=" translate(-179.76, -653.71)" d="M 164.60989 647.62042 L 183.12039000000001 647.6196699999999 L 183.12114000000003 647.6196699999999 C 189.63585351849034 647.6200399807785 194.91700613330286 652.901116487518 194.91747000000004 659.4158299999999 L 194.91747000000004 659.7991599999999 L 164.61047000000005 659.8002799999999 Z" stroke-linecap="round" />
</g>
		<g transform="matrix(1 0 0 1 -396.44 -97.27)"  >
<circle style="stroke: none; stroke-width: 1; stroke-dasharray: none; stroke-linecap: butt; stroke-dashoffset: 0; stroke-linejoin: miter; stroke-miterlimit: 4; fill: rgb(255,184,184); fill-rule: nonzero; opacity: 1;" vector-effect="non-scaling-stroke"  cx="0" cy="0" r="20.37842" />
</g>
		<g transform="matrix(1 0 0 1 -391.03 58.31)"  >
<path style="stroke: none; stroke-width: 1; stroke-dasharray: none; stroke-linecap: butt; stroke-dashoffset: 0; stroke-linejoin: miter; stroke-miterlimit: 4; fill: rgb(47,46,65); fill-rule: nonzero; opacity: 1;" vector-effect="non-scaling-stroke"  transform=" translate(-208.97, -508.31)" d="M 206.19075 381.37813 L 192.04858000000002 382.99437 L 192.04858000000002 382.99437 C 185.07199700782817 392.8884290984582 183.28123378503312 405.5346360844235 187.23652 416.9767 L 197.90752 447.8463 C 197.90752 447.8463 183.0944 477.54262 183.0944 505.11418 C 183.0944 532.6857399999999 154.88366000000002 631.10204 154.88366000000002 631.10204 L 194.593 635.2442 L 211.91951999999998 530.40279 L 235.79631999999998 634.8216 L 263.05391 630.38432 L 248.04113 493.48 L 238.12065 448.4187 L 237.69806 426.44359 C 237.69806 426.44359 241.91622 409.95444 231.35906 399.39730999999995 L 218.46982 381.43688 Z" stroke-linecap="round" />
</g>
		<g transform="matrix(1 0 0 1 -340.14 -21.97)"  >
<path style="stroke: none; stroke-width: 1; stroke-dasharray: none; stroke-linecap: butt; stroke-dashoffset: 0; stroke-linejoin: miter; stroke-miterlimit: 4; fill: rgb(255,184,184); fill-rule: nonzero; opacity: 1;" vector-effect="non-scaling-stroke"  transform=" translate(-259.86, -428.03)" d="M 305.88832 453.97135 C 305.804656756082 451.8677500356021 304.7935183844154 449.90925378851404 303.1269864547661 448.6228620612175 C 301.4604545251168 447.336470333921 299.3097229275663 446.854327251618 297.25352000000004 447.30616999999995 L 220.35117000000002 394.60907 L 213.82950000000002 408.63734999999997 L 291.875 456.29553 C 292.8851951918989 459.77589376526987 296.33883762788093 461.9506545445981 299.9140058108784 461.3576969342903 C 303.48917399387585 460.7647393239825 306.0558244201811 457.59148608604715 305.88837 453.97135 Z" stroke-linecap="round" />
</g>
		<g transform="matrix(1 0 0 1 -371.6 -41.26)"  >
<path style="stroke: none; stroke-width: 1; stroke-dasharray: none; stroke-linecap: butt; stroke-dashoffset: 0; stroke-linejoin: miter; stroke-miterlimit: 4; fill: rgb(47,46,65); fill-rule: nonzero; opacity: 1;" vector-effect="non-scaling-stroke"  transform=" translate(-228.4, -408.74)" d="M 206.91233 411.977 L 235.82933 423.21308 L 252.08979 432.76707999999996 L 261.61352 418.62694 L 249.50052 408.10675 L 214.00333 386.51075 C 208.4486178673624 383.1313482526797 201.22642122657635 384.62191061288945 197.46352000000002 389.92434 L 197.46352000000002 389.92434 C 193.54841993814972 395.44125494709635 194.78362921108805 403.0788727974377 200.23813 407.08047 Z" stroke-linecap="round" />
</g>
		<g transform="matrix(1 0 0 1 -387.66 -112.5)"  >
<path style="stroke: none; stroke-width: 1; stroke-dasharray: none; stroke-linecap: butt; stroke-dashoffset: 0; stroke-linejoin: miter; stroke-miterlimit: 4; fill: rgb(47,46,65); fill-rule: nonzero; opacity: 1;" vector-effect="non-scaling-stroke"  transform=" translate(-212.34, -337.5)" d="M 227.31274 345.44866 L 197.36732 345.44866 L 197.36732 332.39553 C 203.94 329.78433 210.37171 327.56364 214.25961 332.39553 C 221.46863243038027 332.39557418220176 227.31269029496565 338.2396275696557 227.31274000000002 345.44865 Z" stroke-linecap="round" />
</g>
		<g transform="matrix(1 0 0 1 -396.29 -95.94)"  >
<path style="stroke: none; stroke-width: 1; stroke-dasharray: none; stroke-linecap: butt; stroke-dashoffset: 0; stroke-linejoin: miter; stroke-miterlimit: 4; fill: rgb(47,46,65); fill-rule: nonzero; opacity: 1;" vector-effect="non-scaling-stroke"  transform=" translate(-203.71, -354.06)" d="M 202.70944 331.092 C 184.80768 331.17122 179.79673 353.53138 179.79673 366.19056 C 179.79673 373.25045 182.98953 375.77556 188.00666999999999 376.62991 L 189.77853 367.18005999999997 L 193.92853 377.03655 C 195.33785 377.04355 196.8184 377.01631 198.35331 376.98780999999997 L 199.76038 374.09054 L 202.89806 376.93584 C 215.46491999999998 376.95454 233.72684999999998 375.83236 225.62181999999999 366.19057 C 214.764 353.27408 218.3132 331.023 202.70944 331.092 Z" stroke-linecap="round" />
</g>
		<g transform="matrix(1 0 0 1 415.37 -79.19)"  >
<path style="stroke: none; stroke-width: 1; stroke-dasharray: none; stroke-linecap: butt; stroke-dashoffset: 0; stroke-linejoin: miter; stroke-miterlimit: 4; fill: rgb(47,46,65); fill-rule: nonzero; opacity: 1;" vector-effect="non-scaling-stroke"  transform=" translate(-1015.37, -370.81)" d="M 1023.27757 401.36242 C 1022.4860960205976 398.36600094189845 1022.3678497467778 395.2315133477353 1022.9313199999999 392.18397999999996 C 1023.7663899999999 386.29843999999997 1025.64481 380.62053 1027.36303 374.92972999999995 C 1029.08079 369.23873 1030.65646 363.4357299999999 1030.85516 357.49456 C 1031.0534 351.55325 1029.7651 345.39423999999997 1026.22271 340.62077 C 1022.67989 335.84709 1016.64011 332.71891999999997 1010.76376 333.6165 C 1005.14918 334.47411 1000.2460100000001 339.53866 1000.2169700000001 345.15785999999997 C 999.2119700000001 346.97646 1000.5103300000001 349.45993999999996 1002.3592000000001 350.53866999999997 C 1004.2982000000001 351.67010999999997 1006.6361200000001 351.82027 1008.7868400000001 352.46367 C 1013.0553848992611 353.84429442167936 1016.5552004233035 356.94179585139074 1018.4442700000001 361.01095 C 1020.2887953013219 365.0748976548104 1020.779590736391 369.6237441671867 1019.8443800000001 373.98760999999996 C 1018.9974600000002 378.21646 1017.0485100000001 382.12974999999994 1015.5880700000001 386.18773 C 1014.1271600000001 390.24556 1013.1505500000002 394.70097 1014.3240700000001 398.85095 C 1016.3388001654922 405.1881378312566 1022.7142141742804 409.07272663830145 1029.26977 407.95748000000003 C 1026.3349598439854 406.84046879341753 1024.1089894564716 404.3905491872835 1023.27757 401.36242 Z" stroke-linecap="round" />
</g>
		<g transform="matrix(1 0 0 1 0 209.31)"  >
<path style="stroke: none; stroke-width: 1; stroke-dasharray: none; stroke-linecap: butt; stroke-dashoffset: 0; stroke-linejoin: miter; stroke-miterlimit: 4; fill: rgb(202,202,202); fill-rule: nonzero; opacity: 1;" vector-effect="non-scaling-stroke"  transform=" translate(-600, -659.31)" d="M 1097.5 660.30927 L 102.5 660.30927 C 101.94771525016921 660.30927 101.5 659.8615547498308 101.5 659.30927 C 101.5 658.7569852501691 101.94771525016921 658.30927 102.5 658.30927 L 1097.5 658.30927 C 1098.0522847498307 658.30927 1098.5 658.7569852501691 1098.5 659.30927 C 1098.5 659.8615547498308 1098.0522847498307 660.30927 1097.5 660.30927 Z" stroke-linecap="round" />
</g>
		<g transform="matrix(1 0 0 1 255.42 166.52)"  >
<path style="stroke: none; stroke-width: 1; stroke-dasharray: none; stroke-linecap: butt; stroke-dashoffset: 0; stroke-linejoin: miter; stroke-miterlimit: 4; fill: rgb(240,240,240); fill-rule: nonzero; opacity: 1;" vector-effect="non-scaling-stroke"  transform=" translate(-855.42, -616.52)" d="M 870.46389 611.69377 C 868.52352 596.091 858.85378 580.71777 843.97346 575.64018 C 849.8418411665483 591.699792552993 849.8405695017817 609.3175247850797 843.96987 625.3762899999999 C 841.68334 631.5612899999999 838.49616 638.2023899999999 840.6469500000001 644.4359199999999 C 841.9851400000001 648.31459 845.25885 651.2821199999998 848.9182000000001 653.1376399999999 C 852.5777700000001 654.9931499999999 856.63913 655.8775299999999 860.64967 656.74421 L 861.4389600000001 657.3969999999999 C 867.80562 643.02075 872.40426 627.29653 870.46389 611.69377 Z" stroke-linecap="round" />
</g>
		<g transform="matrix(1 0 0 1 252.76 166.14)"  >
<path style="stroke: none; stroke-width: 1; stroke-dasharray: none; stroke-linecap: butt; stroke-dashoffset: 0; stroke-linejoin: miter; stroke-miterlimit: 4; fill: rgb(255,255,255); fill-rule: nonzero; opacity: 1;" vector-effect="non-scaling-stroke"  transform=" translate(-852.76, -616.14)" d="M 843.8258 575.93521 C 852.4913932090374 585.6447516058093 857.8773113554482 597.8378838574364 859.2185499999999 610.7827199999999 C 859.5567665951417 613.5643187366954 859.4544104988162 616.3818449312463 858.9152499999999 619.1315699999999 C 858.3034844335704 621.7931839850179 856.990141592444 624.2424205814161 855.1116799999999 626.2247999999998 C 853.3973299999999 628.1083599999998 851.4256099999999 629.8365099999999 850.1989799999999 632.1039999999998 C 848.9638727601762 634.4704465829379 848.7974382469815 637.2515306266565 849.7414999999999 639.7483899999999 C 850.8244999999998 642.8545899999998 852.9590099999998 645.3863899999999 855.1324199999999 647.7897899999998 C 857.54559 650.4582699999999 860.0944199999999 653.1917899999999 861.1201699999999 656.7294599999998 C 861.2444599999999 657.1580999999998 861.9023 656.9401899999998 861.7781699999999 656.5121899999998 C 859.99349 650.3571899999998 854.0186199999999 646.8610399999998 851.1691699999999 641.3173099999998 C 849.8395899999999 638.7305099999998 849.2815099999999 635.7273099999998 850.5279799999998 632.9966999999998 C 851.6179799999999 630.6088799999998 853.6496899999999 628.8250599999998 855.4019799999999 626.9329099999998 C 857.2628248471709 625.0259096923862 858.6284150646466 622.6922682159999 859.3794599999999 620.1358399999998 C 860.056880023014 617.4224383349721 860.2676113989929 614.6135433281008 860.0026299999998 611.8294399999997 C 859.5060538198537 605.5520119528975 858.0255486437774 599.3916981079478 855.6153499999998 593.5741699999998 C 852.9014346521715 586.9194158670349 849.0691323759085 580.7779511638787 844.2842499999998 575.4154899999997 C 843.9879599999998 575.0836999999998 843.5313699999998 575.6055999999998 843.8257199999998 575.9352099999998 Z" stroke-linecap="round" />
</g>
		<g transform="matrix(1 0 0 1 262.35 151.57)"  >
<path style="stroke: none; stroke-width: 1; stroke-dasharray: none; stroke-linecap: butt; stroke-dashoffset: 0; stroke-linejoin: miter; stroke-miterlimit: 4; fill: rgb(255,255,255); fill-rule: nonzero; opacity: 1;" vector-effect="non-scaling-stroke"  transform=" translate(-862.35, -601.57)" d="M 859.032 606.58911 C 863.4545754573301 605.5153858256381 866.448100853495 601.3957890119809 866.10329 596.8578200000001 C 866.06798 596.41336 865.3756500000001 596.44734 865.41101 596.8923900000001 C 865.7400198113205 601.1191143644596 862.9404226662978 604.9553206381088 858.81473 605.9310800000001 C 858.3809200000001 606.0342200000001 858.60067 606.6916600000001 859.032 606.5890800000001 Z" stroke-linecap="round" />
</g>
		<g transform="matrix(1 0 0 1 251.86 170.45)"  >
<path style="stroke: none; stroke-width: 1; stroke-dasharray: none; stroke-linecap: butt; stroke-dashoffset: 0; stroke-linejoin: miter; stroke-miterlimit: 4; fill: rgb(255,255,255); fill-rule: nonzero; opacity: 1;" vector-effect="non-scaling-stroke"  transform=" translate(-851.86, -620.45)" d="M 856.10671 625.38424 C 852.2392513195406 623.0750193288611 849.3842490721462 619.392951525695 848.11099 615.07224 C 847.98519 614.64405 847.32732 614.8618399999999 847.45299 615.28951 C 848.7863549017111 619.7832837728907 851.7652080176804 623.6090175090688 855.79506 626.00321 C 856.1793200000001 626.23115 856.4889000000001 625.6109799999999 856.1067300000001 625.38428 Z" stroke-linecap="round" />
</g>
		<g transform="matrix(1 0 0 1 249.75 138.03)"  >
<path style="stroke: none; stroke-width: 1; stroke-dasharray: none; stroke-linecap: butt; stroke-dashoffset: 0; stroke-linejoin: miter; stroke-miterlimit: 4; fill: rgb(255,255,255); fill-rule: nonzero; opacity: 1;" vector-effect="non-scaling-stroke"  transform=" translate(-849.75, -588.03)" d="M 852.25861 587.57588 C 850.6607405623612 588.3351703215717 848.7881621015806 588.2400984098327 847.27541 587.3228799999999 C 846.89423 587.0901899999999 846.5850499999999 587.7106299999999 846.96375 587.9418099999999 C 848.6390867202682 588.9469599423361 850.7037061787751 589.056353726418 852.47588 588.2338699999999 C 852.6532618032222 588.1689394219643 852.7497136892669 587.9774011543876 852.6962599999999 587.7962299999999 C 852.6354764707213 587.6151996154357 852.4402420628727 587.5168887304782 852.25861 587.57585 Z" stroke-linecap="round" />
</g>
		<g transform="matrix(1 0 0 1 230.2 180.08)"  >
<path style="stroke: none; stroke-width: 1; stroke-dasharray: none; stroke-linecap: butt; stroke-dashoffset: 0; stroke-linejoin: miter; stroke-miterlimit: 4; fill: rgb(240,240,240); fill-rule: nonzero; opacity: 1;" vector-effect="non-scaling-stroke"  transform=" translate(-830.2, -630.08)" d="M 798.61616 603.50862 C 798.85004 603.66068 799.08393 603.8127499999999 799.3181000000001 603.9706699999999 C 802.4519140181773 606.0313978851121 805.4131370131211 608.3433085815649 808.1725500000001 610.8835899999999 C 808.3890200000001 611.0765899999999 808.6054800000002 611.2754699999999 808.8159500000002 611.4742999999999 C 815.3987500233951 617.6652901784648 820.7749352107988 625.0246227865103 824.6712100000002 633.1781899999999 C 826.2186486748491 636.424110972898 827.5168950857441 639.7830573762799 828.5547100000002 643.2259499999999 C 829.9877100000002 647.9807999999999 831.1631200000003 653.2502799999999 833.9997100000003 657.1395699999999 C 834.29110055344 657.5486589380976 834.6075497356675 657.9393068420704 834.9472400000003 658.30927 L 860.5813600000004 658.30927 C 860.6396100000004 658.28003 860.6981600000004 658.25662 860.7567000000004 658.2273799999999 L 861.7801900000004 658.2741799999999 C 861.7390700000004 658.0928799999999 861.6925200000004 657.9057199999999 861.6514000000004 657.7244199999999 C 861.6279800000004 657.6191499999999 861.5988500000004 657.5138799999999 861.5754000000004 657.4086099999998 C 861.5579800000004 657.3384299999998 861.5402700000004 657.2682199999998 861.5285600000004 657.2038899999999 C 861.5228500000004 657.1805099999999 861.5168500000004 657.1571299999999 861.5111400000004 657.1395699999999 C 861.4994300000004 657.0752399999999 861.4817300000004 657.0167299999999 861.4700200000004 656.9582599999999 Q 861.0840700000005 655.3879499999999 860.6747000000005 653.8176099999998 C 860.6747000000005 653.8117599999998 860.6747000000005 653.8117599999998 860.6689900000005 653.8058999999998 C 858.6657364437317 645.8088527049348 855.7209008089585 638.0776747857842 851.8962100000005 630.7744199999999 C 851.7791200000005 630.5580299999998 851.6623200000005 630.3357799999999 851.5335300000005 630.1194199999999 C 849.7624584430837 626.8865749806503 847.730129950606 623.8038867462425 845.4568400000005 620.9021399999999 C 844.2069402069367 619.3172404822238 842.8776125306374 617.7966280376562 841.4739600000005 616.3461399999999 C 837.8399183638671 612.6052920266795 833.6400856024209 609.4593311145912 829.0284300000005 607.0235899999999 C 819.8344300000006 602.16933 809.1902900000006 600.3094999999998 799.3646000000006 603.2747099999999 C 799.11334 603.35073 798.86746 603.42673 798.61616 603.50862 Z" stroke-linecap="round" />
</g>
		<g transform="matrix(1 0 0 1 230.02 180.57)"  >
<path style="stroke: none; stroke-width: 1; stroke-dasharray: none; stroke-linecap: butt; stroke-dashoffset: 0; stroke-linejoin: miter; stroke-miterlimit: 4; fill: rgb(255,255,255); fill-rule: nonzero; opacity: 1;" vector-effect="non-scaling-stroke"  transform=" translate(-830.02, -630.57)" d="M 798.67379 603.834 C 811.4385944781437 606.3692410619442 823.0800562710896 612.8620766736237 831.94465 622.39028 C 833.8894072316722 624.4076066822371 835.5040275789975 626.7188691493128 836.72907 629.23898 C 837.8430804644445 631.7324565343943 838.2690569244713 634.4787576792806 837.9627399999999 637.19254 C 837.7279599999999 639.72862 837.1941199999999 642.29554 837.5799099999999 644.84454 C 838.0185038743865 647.4776373647081 839.5600222044015 649.7983843008974 841.8170899999999 651.2235900000001 C 844.55194 653.05168 847.7805599999999 653.78808 850.9629099999999 654.3984800000001 C 854.4962999999999 655.07623 858.1771299999998 655.7242100000001 861.1260999999998 657.93128 C 861.4834099999998 658.19869 861.8774499999998 657.62864 861.5206799999999 657.36162 C 856.3899799999998 653.5217 849.5144499999999 654.3275 843.9016799999998 651.61668 C 841.2826799999998 650.35177 839.0289399999998 648.28991 838.3801399999999 645.35919 C 837.8127899999998 642.7964000000001 838.3610299999999 640.14888 838.6209399999999 637.5831000000001 C 838.958576761193 634.9401058493329 838.6439108903398 632.2546396184161 837.7044299999999 629.76129 C 836.611657644424 627.1869439574472 835.0887696408232 624.817329615156 833.2009799999998 622.75392 C 829.0250332859997 618.0407029582253 824.1339815638755 614.0133917798934 818.707 610.81952 C 812.5334764881312 607.1400401766638 805.7760221806175 604.5437335619232 798.727 603.14293 C 798.29067 603.05641 798.24032 603.74801 798.6738 603.83393 Z" stroke-linecap="round" />
</g>
		<g transform="matrix(1 0 0 1 229.91 163.15)"  >
<path style="stroke: none; stroke-width: 1; stroke-dasharray: none; stroke-linecap: butt; stroke-dashoffset: 0; stroke-linejoin: miter; stroke-miterlimit: 4; fill: rgb(255,255,255); fill-rule: nonzero; opacity: 1;" vector-effect="non-scaling-stroke"  transform=" translate(-829.91, -613.15)" d="M 829.27088 619.15419 C 832.1556067402215 615.6341835524062 832.0654828516645 610.5426008343708 829.05799 607.12689 C 828.76221 606.79327 828.22988 607.23724 828.52606 607.5713 C 831.3335406457825 610.7480159506913 831.4078821815009 615.496566689982 828.70122 618.75961 C 828.4169400000001 619.1031399999999 828.9882200000001 619.49577 829.27088 619.15419 Z" stroke-linecap="round" />
</g>
		<g transform="matrix(1 0 0 1 231.89 184.58)"  >
<path style="stroke: none; stroke-width: 1; stroke-dasharray: none; stroke-linecap: butt; stroke-dashoffset: 0; stroke-linejoin: miter; stroke-miterlimit: 4; fill: rgb(255,255,255); fill-rule: nonzero; opacity: 1;" vector-effect="non-scaling-stroke"  transform=" translate(-831.89, -634.58)" d="M 838.25114 635.9223 C 833.7728689271929 636.4069860181567 829.2764424841727 635.1859546266843 825.65845 632.5026799999999 C 825.30021 632.23654 824.90605 632.8065099999999 825.26386 633.0723399999999 C 829.0340422299183 635.8575880825609 833.7158482617726 637.1187444113108 838.3749300000001 636.60412 C 838.81893 636.55476 838.6927700000001 635.87321 838.2511400000001 635.9223 Z" stroke-linecap="round" />
</g>
		<g transform="matrix(1 0 0 1 210.52 159.72)"  >
<path style="stroke: none; stroke-width: 1; stroke-dasharray: none; stroke-linecap: butt; stroke-dashoffset: 0; stroke-linejoin: miter; stroke-miterlimit: 4; fill: rgb(255,255,255); fill-rule: nonzero; opacity: 1;" vector-effect="non-scaling-stroke"  transform=" translate(-810.52, -609.72)" d="M 812.4154 608.05125 C 811.596748641653 609.6195369182492 810.0443668177246 610.6710625282246 808.2842899999999 610.84951 C 807.83984 610.89321 807.9665299999999 611.57475 808.4080799999999 611.53133 C 810.3509199933563 611.3252157886094 812.065274868112 610.1695188643118 812.9850799999999 608.44584 C 813.0876122435604 608.2871955051152 813.0492996810847 608.0761919339384 812.8975399999999 607.96372 C 812.7400179085404 607.8557686389679 812.5249423374856 607.8948161058526 812.4154199999999 608.05125 Z" stroke-linecap="round" />
</g>
		<g transform="matrix(1 0 0 1 -291.37 166.52)"  >
<path style="stroke: none; stroke-width: 1; stroke-dasharray: none; stroke-linecap: butt; stroke-dashoffset: 0; stroke-linejoin: miter; stroke-miterlimit: 4; fill: rgb(240,240,240); fill-rule: nonzero; opacity: 1;" vector-effect="non-scaling-stroke"  transform=" translate(-308.63, -616.52)" d="M 293.59368 611.69377 C 295.53405 596.091 305.2038 580.71777 320.08411 575.64018 C 314.21572883345175 591.6997925529929 314.2170004982183 609.3175247850797 320.0877 625.3762899999999 C 322.37423 631.5612899999999 325.56140999999997 638.2023899999999 323.41062 644.4359199999999 C 322.07243 648.31459 318.79872 651.2821199999998 315.13938 653.1376399999999 C 311.4798 654.9931499999999 307.41844000000003 655.8775299999999 303.40791 656.74421 L 302.61861 657.3969999999999 C 296.252 643.02075 291.65332 627.29653 293.59368 611.69377 Z" stroke-linecap="round" />
</g>
		<g transform="matrix(1 0 0 1 -288.7 166.14)"  >
<path style="stroke: none; stroke-width: 1; stroke-dasharray: none; stroke-linecap: butt; stroke-dashoffset: 0; stroke-linejoin: miter; stroke-miterlimit: 4; fill: rgb(255,255,255); fill-rule: nonzero; opacity: 1;" vector-effect="non-scaling-stroke"  transform=" translate(-311.3, -616.14)" d="M 320.23177 575.93521 C 311.56617357858266 585.6447516225512 306.1802489264363 597.8378827597614 304.839 610.78272 C 304.5007884165974 613.5643189490282 304.6031444843048 616.381844355817 305.1423 619.13157 C 305.75406556642946 621.793183985018 307.06740840755583 624.2424205814162 308.94586999999996 626.2248 C 310.66022 628.10836 312.63193999999993 629.83651 313.85857999999996 632.1039999999999 C 315.0936839669144 634.4704480337632 315.26011483965385 637.2515320376563 314.31604999999996 639.74839 C 313.23304999999993 642.8545899999999 311.09855 645.38639 308.92512999999997 647.7897899999999 C 306.51196 650.45827 303.96313 653.19179 302.93737999999996 656.7294599999999 C 302.81309 657.1580999999999 302.15524999999997 656.9401899999999 302.27937999999995 656.5121899999999 C 304.0640599999999 650.35719 310.03893999999997 646.8610399999999 312.8883799999999 641.3173099999999 C 314.2179699999999 638.7305099999999 314.7760399999999 635.7273099999999 313.52957999999995 632.9966999999999 C 312.43958 630.6088799999999 310.40786999999995 628.8250599999999 308.65557999999993 626.9329099999999 C 306.7947325049025 625.0259100244133 305.4291389522188 622.6922687156633 304.67808999999994 620.1358399999999 C 304.0006699769858 617.4224383349722 303.78993860100684 614.613543328101 304.0549199999999 611.8294399999999 C 304.55149618014605 605.5520119528976 306.03200135622234 599.3916981079481 308.4421999999999 593.5741699999999 C 311.1561159240112 586.9194138998482 314.9884218593252 580.7779487528798 319.7733099999999 575.4154899999999 C 320.06958999999995 575.0836999999999 320.52618999999993 575.6055999999999 320.23182999999995 575.9352099999999 Z" stroke-linecap="round" />
</g>
		<g transform="matrix(1 0 0 1 -298.3 151.57)"  >
<path style="stroke: none; stroke-width: 1; stroke-dasharray: none; stroke-linecap: butt; stroke-dashoffset: 0; stroke-linejoin: miter; stroke-miterlimit: 4; fill: rgb(255,255,255); fill-rule: nonzero; opacity: 1;" vector-effect="non-scaling-stroke"  transform=" translate(-301.7, -601.57)" d="M 305.02555 606.58911 C 300.6029696067256 605.515393193005 297.60944061478796 601.3957914309569 297.95426000000003 596.8578200000001 C 297.98956000000004 596.41336 298.68189 596.44734 298.64654 596.8923900000001 C 298.3175042178917 601.1191217306392 301.1171123977314 604.9553431249758 305.24282 605.9310800000001 C 305.67663 606.0342200000001 305.45688 606.6916600000001 305.02555 606.5890800000001 Z" stroke-linecap="round" />
</g>
		<g transform="matrix(1 0 0 1 -287.8 170.45)"  >
<path style="stroke: none; stroke-width: 1; stroke-dasharray: none; stroke-linecap: butt; stroke-dashoffset: 0; stroke-linejoin: miter; stroke-miterlimit: 4; fill: rgb(255,255,255); fill-rule: nonzero; opacity: 1;" vector-effect="non-scaling-stroke"  transform=" translate(-312.2, -620.45)" d="M 307.95087 625.38424 C 311.81832557150744 623.0750181903883 314.67332428447145 619.3929503404931 315.94658 615.07224 C 316.07238 614.64405 316.73026 614.8618399999999 316.60458 615.28951 C 315.27121174342716 619.7832849591654 312.2923550925357 623.6090186491631 308.2625 626.00321 C 307.87824 626.23115 307.56865999999997 625.6109799999999 307.95083999999997 625.38428 Z" stroke-linecap="round" />
</g>
		<g transform="matrix(1 0 0 1 -285.69 138.03)"  >
<path style="stroke: none; stroke-width: 1; stroke-dasharray: none; stroke-linecap: butt; stroke-dashoffset: 0; stroke-linejoin: miter; stroke-miterlimit: 4; fill: rgb(255,255,255); fill-rule: nonzero; opacity: 1;" vector-effect="non-scaling-stroke"  transform=" translate(-314.31, -588.03)" d="M 311.799 587.57588 C 313.3968694376388 588.3351703215717 315.2694478984194 588.2400984098327 316.7822 587.3228799999999 C 317.16339 587.0901899999999 317.47256999999996 587.7106299999999 317.09387 587.9418099999999 C 315.4185296579844 588.9469599823522 313.3539072692441 589.0563537232324 311.58173 588.2338699999999 C 311.40434819677773 588.1689394219643 311.30789631073316 587.9774011543876 311.36135 587.7962299999999 C 311.42213352927865 587.6151996154357 311.61736793712726 587.5168887304782 311.79900000000004 587.57585 Z" stroke-linecap="round" />
</g>
		<g transform="matrix(1 0 0 1 -266.14 180.08)"  >
<path style="stroke: none; stroke-width: 1; stroke-dasharray: none; stroke-linecap: butt; stroke-dashoffset: 0; stroke-linejoin: miter; stroke-miterlimit: 4; fill: rgb(240,240,240); fill-rule: nonzero; opacity: 1;" vector-effect="non-scaling-stroke"  transform=" translate(-333.86, -630.08)" d="M 365.44141 603.50862 C 365.20753 603.66068 364.97365 603.8127499999999 364.73948 603.9706699999999 C 361.60566096072444 606.0313952538957 358.64443443558207 608.3433060954587 355.88502 610.8835899999999 C 355.66856 611.0765899999999 355.45209 611.2754699999999 355.24163 611.4742999999999 C 348.6588270101239 617.6652875582789 343.28264139107955 625.024620757187 339.38637 633.1781899999999 C 337.83893132515107 636.424110972898 336.54068491425613 639.7830573762799 335.50287 643.2259499999999 C 334.06987 647.9807999999999 332.89444999999995 653.2502799999999 330.05787 657.1395699999999 C 329.7664794465603 657.5486589380974 329.45003026433284 657.9393068420704 329.11034 658.30927 L 303.47622 658.30927 C 303.41796 658.28003 303.35942 658.25662 303.30087000000003 658.2273799999999 L 302.27738000000005 658.2741799999999 C 302.31851000000006 658.0928799999999 302.36505000000005 657.9057199999999 302.40618000000006 657.7244199999999 C 302.4295900000001 657.6191499999999 302.4587200000001 657.5138799999999 302.4821800000001 657.4086099999998 C 302.4996000000001 657.3384299999998 302.5173000000001 657.2682199999998 302.5290100000001 657.2038899999999 C 302.5347200000001 657.1805099999999 302.5407200000001 657.1571299999999 302.5464300000001 657.1395699999999 C 302.5581400000001 657.0752399999999 302.5758500000001 657.0167299999999 302.5875500000001 656.9582599999999 Q 302.9735500000001 655.3879499999999 303.3828700000001 653.8176099999998 C 303.3828700000001 653.8117599999998 303.3828700000001 653.8117599999998 303.3885900000001 653.8058999999998 C 305.39184355626884 645.8088527049348 308.336679191042 638.0776747857842 312.1613700000001 630.7744199999999 C 312.2784500000001 630.5580299999998 312.3952500000001 630.3357799999999 312.52404000000007 630.1194199999999 C 314.2951114283548 626.8865726268722 316.32744344664906 623.8038841173878 318.6007400000001 620.9021399999999 C 319.8506340046534 619.3172356748513 321.17996193157177 617.7966229436015 322.5836200000001 616.3461399999999 C 326.21765750532677 612.6052916208647 330.417487047671 609.4593305923195 335.0291400000001 607.0235899999999 C 344.2231400000001 602.16933 354.8672800000001 600.3094999999998 364.6929700000001 603.2747099999999 C 364.94423 603.35073 365.19011 603.42673 365.44141 603.50862 Z" stroke-linecap="round" />
</g>
		<g transform="matrix(1 0 0 1 -265.96 180.57)"  >
<path style="stroke: none; stroke-width: 1; stroke-dasharray: none; stroke-linecap: butt; stroke-dashoffset: 0; stroke-linejoin: miter; stroke-miterlimit: 4; fill: rgb(255,255,255); fill-rule: nonzero; opacity: 1;" vector-effect="non-scaling-stroke"  transform=" translate(-334.04, -630.57)" d="M 365.38378 603.834 C 352.61897768472704 606.3692391554356 340.9775185337296 612.8620752451199 332.11293 622.39028 C 330.16816966936506 624.4076041327133 328.5535489608971 626.71886711675 327.32851 629.23898 C 326.21449141139726 631.7324542097192 325.7885112926356 634.4787566814931 326.09483 637.19254 C 326.32961 639.72862 326.86346 642.29554 326.47767 644.84454 C 326.0390688348982 647.4776344891111 324.4975523181443 649.7983786954462 322.24048999999997 651.2235900000001 C 319.50562999999994 653.05168 316.27700999999996 653.78808 313.09466 654.3984800000001 C 309.56127 655.07623 305.88045 655.7242100000001 302.93147999999997 657.93128 C 302.57417 658.19869 302.18012 657.62864 302.53688999999997 657.36162 C 307.66758999999996 653.5217 314.54312 654.3275 320.15589 651.61668 C 322.77489 650.35177 325.02862 648.28991 325.67742 645.35919 C 326.24476999999996 642.7964000000001 325.69653 640.14888 325.43662 637.5831000000001 C 325.0989881468073 634.9401058237695 325.41365387880575 632.254640777886 326.35313 629.76129 C 327.4459022826002 627.1869416021119 328.96879401853846 624.8173267140788 330.85659000000004 622.75392 C 335.032521081904 618.0407148526128 339.9235560430367 614.0134137059196 345.35051999999996 610.81955 C 351.524044718429 607.1400726607702 358.28149858654217 604.5437662148533 365.33052000000004 603.14296 C 365.76684000000006 603.0564400000001 365.81719000000004 603.7480400000001 365.38371 603.83396 Z" stroke-linecap="round" />
</g>
		<g transform="matrix(1 0 0 1 -265.85 163.15)"  >
<path style="stroke: none; stroke-width: 1; stroke-dasharray: none; stroke-linecap: butt; stroke-dashoffset: 0; stroke-linejoin: miter; stroke-miterlimit: 4; fill: rgb(255,255,255); fill-rule: nonzero; opacity: 1;" vector-effect="non-scaling-stroke"  transform=" translate(-334.15, -613.15)" d="M 334.7867 619.15419 C 331.9019746220662 615.6341845267108 331.9920942224038 610.5426049084251 334.99958 607.12689 C 335.29537 606.79327 335.82768999999996 607.23724 335.53150999999997 607.5713 C 332.72403354936665 610.7480175764559 332.64969206248446 615.4965651963373 335.35634999999996 618.75961 C 335.64063 619.1031399999999 335.06935 619.49577 334.78669999999994 619.15419 Z" stroke-linecap="round" />
</g>
		<g transform="matrix(1 0 0 1 -267.83 184.58)"  >
<path style="stroke: none; stroke-width: 1; stroke-dasharray: none; stroke-linecap: butt; stroke-dashoffset: 0; stroke-linejoin: miter; stroke-miterlimit: 4; fill: rgb(255,255,255); fill-rule: nonzero; opacity: 1;" vector-effect="non-scaling-stroke"  transform=" translate(-332.17, -634.58)" d="M 325.80643 635.9223 C 330.2847011515375 636.4069870167925 334.78112795303304 635.185955527974 338.39912 632.5026799999999 C 338.75737 632.23654 339.15152 632.8065099999999 338.79371 633.0723399999999 C 335.0235282059469 635.857588985568 330.34172181491783 637.1187454110702 325.68264 636.60412 C 325.23864 636.55476 325.3648 635.87321 325.80643 635.9223 Z" stroke-linecap="round" />
</g>
		<g transform="matrix(1 0 0 1 -246.47 159.72)"  >
<path style="stroke: none; stroke-width: 1; stroke-dasharray: none; stroke-linecap: butt; stroke-dashoffset: 0; stroke-linejoin: miter; stroke-miterlimit: 4; fill: rgb(255,255,255); fill-rule: nonzero; opacity: 1;" vector-effect="non-scaling-stroke"  transform=" translate(-353.53, -609.72)" d="M 351.64217 608.05125 C 352.4608227540458 609.6195356735793 354.01320382036766 610.6710607703804 355.77328 610.84951 C 356.21773 610.89321 356.09105 611.57475 355.64949 611.53133 C 353.70664814637627 611.3252208939956 351.9922910970212 610.1695225037369 351.07249 608.44584 C 350.96995040856643 608.287199048195 351.0082592023813 608.0761921285788 351.16002000000003 607.96372 C 351.31754209145953 607.8557686389679 351.5326176625143 607.8948161058526 351.64214000000004 608.05125 Z" stroke-linecap="round" />
</g>
</g>
</g>
</svg>